<?xml version="1.0" encoding="utf-8"?>
<!-- Generator: Adobe Illustrator 18.0.0, SVG Export Plug-In . SVG Version: 6.00 Build 0)  -->
<!DOCTYPE svg PUBLIC "-//W3C//DTD SVG 1.1//EN" "http://www.w3.org/Graphics/SVG/1.1/DTD/svg11.dtd">
<svg version="1.1" id="Layer_1" xmlns="http://www.w3.org/2000/svg" xmlns:xlink="http://www.w3.org/1999/xlink" x="0px" y="0px"
	 viewBox="0 0 70.9 70.9" enable-background="new 0 0 70.9 70.9" xml:space="preserve">
<g>
	<defs>
		<rect id="SVGID_1_" x="7.3" y="7.3" width="56.3" height="56.3"/>
	</defs>
	<clipPath id="SVGID_2_">
		<use xlink:href="#SVGID_1_"  overflow="visible"/>
	</clipPath>
	<path clip-path="url(#SVGID_2_)" fill="#2F3947" d="M28.1,37.8c0.6-0.6,0.9-1.4,0.9-2.4c0-1-0.3-1.8-0.9-2.4
		c-0.6-0.6-1.4-0.9-2.3-0.9c-0.9,0-1.7,0.3-2.3,0.9s-0.9,1.4-0.9,2.4c0,0.9,0.3,1.7,0.9,2.4s1.4,0.9,2.3,0.9
		C26.7,38.7,27.5,38.4,28.1,37.8 M37.7,37.8c0.6-0.6,0.9-1.4,0.9-2.4c0-1-0.3-1.8-0.9-2.4s-1.4-0.9-2.3-0.9s-1.7,0.3-2.3,0.9
		s-0.9,1.4-0.9,2.4c0,0.9,0.3,1.7,0.9,2.4c0.6,0.6,1.4,0.9,2.3,0.9C36.3,38.7,37.1,38.4,37.7,37.8 M47.4,37.8
		c0.6-0.6,0.9-1.4,0.9-2.4c0-1-0.3-1.8-0.9-2.4c-0.6-0.6-1.4-0.9-2.3-0.9c-0.9,0-1.7,0.3-2.3,0.9c-0.6,0.6-0.9,1.4-0.9,2.4
		c0,0.9,0.3,1.7,0.9,2.4c0.6,0.6,1.4,0.9,2.3,0.9S46.7,38.4,47.4,37.8"/>
	<path clip-path="url(#SVGID_2_)" fill="#F09D2D" d="M55.6,35.4c0,11.2-9,20.2-20.2,20.2s-20.2-9-20.2-20.2s9-20.2,20.2-20.2
		S55.6,24.3,55.6,35.4 M56.1,54.5c4.6-5,7.5-11.7,7.5-19C63.6,19.9,51,7.3,35.4,7.3C19.9,7.3,7.3,19.9,7.3,35.4s12.6,28.1,28.1,28.1
		h28.1L56.1,54.5z"/>
</g>
</svg>
